<svg xmlns="http://www.w3.org/2000/svg" width="1514" height="1521"><defs><linearGradient x1="2.043%" y1="62.36%" x2="44.534%" y2="62.36%" id="a"><stop stop-color="#0F5C47" offset="0%"/><stop stop-color="#0C4E3C" offset="100%"/></linearGradient></defs><path class="cls-1" d="M3505 1113c-10.506-30.94-13.961-64.634-52.244-102.922-67.893-67.9-99.337-36.454-167.229-104.357s-36.451-99.35-104.345-167.253-99.336-36.454-167.229-104.356-36.449-99.349-104.342-167.249-99.336-36.454-167.229-104.356-36.446-99.347-104.336-167.246-99.336-36.454-167.228-104.355-36.449-99.349-104.342-167.25S2267.14-112.8 2199.248-180.7s-36.45-99.349-104.342-167.249C2051.8-391.065 2023.38-394.128 1991-408v1521z" transform="rotate(180 1752.5 556.5)" fill="url(#a)" fill-rule="evenodd"/></svg>